<svg width="28" height="28" viewBox="0 0 28 28" fill="none" xmlns="http://www.w3.org/2000/svg">
<path d="M8.49579 15.4821C8.21579 15.4821 7.96281 15.4162 7.73684 15.2845C7.51088 15.1478 7.33158 14.9673 7.19895 14.7429C7.06632 14.5184 7 14.272 7 14.0037C7 13.7304 7.06632 13.4816 7.19895 13.2571C7.33158 13.0327 7.51088 12.8546 7.73684 12.7229C7.96281 12.5862 8.21579 12.5179 8.49579 12.5179C8.76596 12.5179 9.01403 12.5862 9.24 12.7229C9.46596 12.8546 9.64526 13.0327 9.77789 13.2571C9.91053 13.4816 9.97684 13.7304 9.97684 14.0037C9.97684 14.272 9.91053 14.5184 9.77789 14.7429C9.64526 14.9673 9.46596 15.1478 9.24 15.2845C9.01403 15.4162 8.76596 15.4821 8.49579 15.4821ZM14 15.4821C13.7249 15.4821 13.4744 15.4162 13.2484 15.2845C13.0225 15.1478 12.8407 14.9673 12.7032 14.7429C12.5705 14.5184 12.5042 14.272 12.5042 14.0037C12.5042 13.7304 12.5705 13.4816 12.7032 13.2571C12.8407 13.0327 13.0225 12.8546 13.2484 12.7229C13.4744 12.5862 13.7249 12.5179 14 12.5179C14.2751 12.5179 14.5232 12.5862 14.7442 12.7229C14.9702 12.8546 15.1495 13.0327 15.2821 13.2571C15.4196 13.4816 15.4884 13.7304 15.4884 14.0037C15.4884 14.272 15.4196 14.5184 15.2821 14.7429C15.1495 14.9673 14.9702 15.1478 14.7442 15.2845C14.5232 15.4162 14.2751 15.4821 14 15.4821ZM19.5042 15.4821C19.2291 15.4821 18.9786 15.4162 18.7526 15.2845C18.5267 15.1478 18.3474 14.9673 18.2147 14.7429C18.0821 14.5184 18.0158 14.272 18.0158 14.0037C18.0158 13.7304 18.0821 13.4816 18.2147 13.2571C18.3474 13.0327 18.5267 12.8546 18.7526 12.7229C18.9786 12.5862 19.2291 12.5179 19.5042 12.5179C19.7793 12.5179 20.0298 12.5862 20.2558 12.7229C20.4818 12.8546 20.6611 13.0327 20.7937 13.2571C20.9312 13.4816 21 13.7304 21 14.0037C21 14.272 20.9312 14.5184 20.7937 14.7429C20.6611 14.9673 20.4818 15.1478 20.2558 15.2845C20.0298 15.4162 19.7793 15.4821 19.5042 15.4821Z" fill="white"/>
</svg>
